PathFileType	4	(X/Y/Z)	C:\Users\dbl\Desktop\LZH\BX\Trimmed_Trimmed_Trimmed_Trimmed_bx_n_5_1801.trc
DataRate	CameraRate	NumFrames	NumMarkers	Units	OrigDataRate	OrigDataStartFrame	OrigNumFrames
50.00	50.00	       4	43	mm	50.00	146	       290
Frame#	Time	Top.Head			R.Acromium			L.Acromium			Sternum			R.ASIS			L.ASIS			V.Sacral			R.Thigh.Upper			R.Thigh.Front			R.Thigh.Rear			R.Knee.Lat			R.Knee.Med			R.Shank.Upper			R.Shank.Front			R.Shank.Rear			R.Ankle.Lat			R.Midfoot.Lat			R.Toe.Lat			R.Toe.Tip			R.Toe.Med			R.Ankle.Med			R.Midfoot.Sup			R.Heel			L.Thigh.Upper			L.Thigh.Front			L.Thigh.Rear			L.Knee.Lat			L.Knee.Med			L.Shank.Upper			L.Shank.Front			L.Shank.Rear			L.Ankle.Lat			L.Midfoot.Lat			L.Toe.Lat			L.Toe.Tip			L.Toe.Med			L.Ankle.Med			L.Midfoot.Sup			L.Heel			origin1 front left			origin2 front right			origin 3 back right			origin 4 back leftt			
		X1	Y1	Z1	X2	Y2	Z2	X3	Y3	Z3	X4	Y4	Z4	X5	Y5	Z5	X6	Y6	Z6	X7	Y7	Z7	X8	Y8	Z8	X9	Y9	Z9	X10	Y10	Z10	X11	Y11	Z11	X12	Y12	Z12	X13	Y13	Z13	X14	Y14	Z14	X15	Y15	Z15	X16	Y16	Z16	X17	Y17	Z17	X18	Y18	Z18	X19	Y19	Z19	X20	Y20	Z20	X21	Y21	Z21	X22	Y22	Z22	X23	Y23	Z23	X24	Y24	Z24	X25	Y25	Z25	X26	Y26	Z26	X27	Y27	Z27	X28	Y28	Z28	X29	Y29	Z29	X30	Y30	Z30	X31	Y31	Z31	X32	Y32	Z32	X33	Y33	Z33	X34	Y34	Z34	X35	Y35	Z35	X36	Y36	Z36	X37	Y37	Z37	X38	Y38	Z38	X39	Y39	Z39	X40	Y40	Z40	X41	Y41	Z41	X42	Y42	Z42	X43	Y43	Z43	

146	2.900	-207.22638	259.02567	1194.89819	-388.35480	92.99490	992.91382	-382.37006	423.60315	968.07922	-520.54572	235.16904	814.74438	-754.90277	144.30099	734.79688	-727.91064	342.45667	684.46112	-944.75409	276.64154	767.77332	-726.47021	70.32308	647.43958	-652.21112	134.19681	712.78198	-610.38440	60.18960	614.96655	-518.02393	76.05975	537.77319	-479.83698	186.45526	528.14307	-534.26727	79.72751	490.83429	-458.57404	130.95314	473.39410	-562.14307	80.07295	449.33969	-670.86053	152.43489	214.23886	-607.66296	92.09240	166.91837	-561.73108	70.32144	162.69418	-483.11536	111.26119	157.14435	-528.27716	164.67517	162.86528	-623.82422	227.62096	211.93106	-591.02472	204.53337	166.39540	-717.09076	221.01692	174.75822	-708.37097	457.23904	647.92426	-629.88733	400.52930	708.81085	-606.36230	451.56308	596.17078	-482.60510	431.08865	536.87036	-457.86017	317.08188	520.21027	-484.97144	430.17447	502.41251	-421.73694	370.39532	491.08197	-557.28210	425.69479	464.95499	-662.81470	393.23929	212.84801	-581.62451	446.46808	166.66985	-544.63092	457.17941	157.93661	-478.60092	409.21329	163.18440	-521.36926	367.23981	175.47813	-617.25989	297.56931	189.07588	-590.57159	326.08444	164.12703	-729.58807	321.89481	164.37276	-443.92230	448.10010	146.74330	-450.76910	75.85762	142.69162	-806.15894	82.27678	141.73857	-799.48041	456.90271	145.40027	
147	2.920	-207.79980	259.52786	1194.53931	-388.59241	93.34019	992.33765	-382.68811	423.85156	967.54175	-520.27478	235.09406	811.78644	-755.04553	144.69189	734.14526	-728.33966	342.40250	682.06995	-944.99597	276.92285	767.16431	-726.58813	70.41301	647.28571	-652.40820	134.42274	712.52124	-610.44165	60.32002	614.83575	-517.99652	76.08112	537.82007	-479.79492	186.42746	528.09082	-534.18811	79.76907	490.83762	-458.48792	131.05219	473.38300	-562.01453	80.02075	449.47977	-670.85498	152.43835	214.26155	-607.63550	92.08798	166.92854	-561.73407	70.30766	162.70253	-483.11832	111.28104	157.12717	-528.29407	164.65312	162.85191	-623.84723	227.57399	211.96944	-591.04956	204.57874	166.44121	-717.06531	221.00250	174.80751	-708.49390	457.57672	647.69543	-630.04761	400.82391	708.57544	-606.41577	451.74295	595.97375	-482.56067	431.06012	536.75903	-457.77481	317.31171	520.23273	-484.90448	430.24063	502.46631	-421.69012	370.40826	491.11414	-557.21814	425.73184	464.87668	-662.79590	393.28873	212.86864	-581.61853	446.42764	166.65221	-544.61298	457.12711	157.89474	-478.58862	409.20950	163.18430	-521.38116	367.22302	175.45029	-617.30981	297.24005	188.92169	-590.87469	326.10056	163.88995	-729.58923	321.92618	164.38791	-443.90326	448.08859	146.70062	-450.75928	75.81793	142.72226	-806.19073	82.32767	141.76480	-799.43610	456.91818	145.44815	
148	2.940	-208.49063	259.99466	1194.27502	-388.85565	93.75338	991.63055	-383.07648	424.10538	967.04584	-519.99854	235.02441	809.09460	-755.12793	144.98309	733.56567	-728.73962	342.38913	679.84705	-945.23907	277.19067	766.49707	-726.67798	70.48515	647.07520	-652.60278	134.55901	712.23004	-610.46210	60.40868	614.67346	-517.94849	76.06123	537.82715	-479.73383	186.37965	528.03033	-534.04742	79.77661	490.80832	-458.38531	131.13704	473.36569	-561.87292	79.94849	449.57034	-670.85052	152.40843	214.29941	-607.59784	92.07088	166.93269	-561.74060	70.27733	162.68564	-483.11697	111.29710	157.06642	-528.31079	164.63351	162.84387	-623.89142	227.51256	212.04584	-591.08093	204.64142	166.50217	-717.03662	220.99644	174.88634	-708.58704	457.72778	647.17590	-630.19098	401.08548	708.34766	-606.44531	451.90665	595.71240	-482.46231	431.15289	536.74609	-457.63898	317.43918	520.26233	-484.76041	430.33093	502.53748	-421.61572	370.47357	491.08224	-557.19189	425.78085	464.86926	-662.77252	393.32651	212.88226	-581.61774	446.40286	166.64304	-544.57410	457.09454	157.86037	-478.59082	409.21600	163.18567	-521.38031	367.18893	175.42271	-617.38574	296.91647	188.78232	-591.04871	326.10092	163.72887	-729.59888	321.96298	164.40950	-443.86340	448.06467	146.61040	-450.75516	75.80068	142.73537	-806.20953	82.35186	141.80910	-799.38422	456.93521	145.50603	
149	2.960	-209.30807	260.41724	1194.05737	-389.13037	94.20412	990.86487	-383.51886	424.33115	966.56494	-519.71765	234.96017	806.66888	-755.19080	145.20544	733.04602	-729.10925	342.41452	677.79443	-945.46399	277.46152	765.69519	-726.75006	70.58670	646.71240	-652.80194	134.65982	711.89081	-610.43304	60.44532	614.43683	-517.85425	76.00217	537.75043	-479.67029	186.32452	528.00323	-533.86401	79.74682	490.70474	-458.26575	131.16840	473.35510	-561.69678	79.87805	449.58044	-670.85297	152.35098	214.33041	-607.55511	92.03728	166.91602	-561.75159	70.22626	162.63542	-483.07507	111.32125	156.99983	-528.32507	164.63538	162.84296	-623.92731	227.44029	212.12476	-591.10852	204.68275	166.54553	-717.01880	220.95564	174.97258	-708.59790	457.65201	646.27026	-630.31934	401.31793	708.07184	-606.41083	452.05362	595.34540	-482.26904	431.36942	536.75531	-457.46191	317.48105	520.29541	-484.51068	430.47653	502.56903	-421.46014	370.60477	491.01297	-557.15503	425.85904	464.89853	-662.76477	393.35565	212.86732	-581.61707	446.40329	166.64571	-544.51147	457.08716	157.83713	-478.60495	409.22876	163.18933	-521.36346	367.15082	175.41118	-617.48682	296.59924	188.65767	-591.09131	326.08237	163.66704	-729.60797	321.99869	164.43588	-443.81168	448.02365	146.49248	-450.76138	75.81187	142.72295	-806.21844	82.34785	141.84602	-799.36884	456.96454	145.55423	
